<svg width="26" height="26" viewBox="0 0 26 26" fill="none" xmlns="http://www.w3.org/2000/svg">
<path d="M19.9198 5.14534C17.4964 3.17932 15.0982 1.98852 11.9889 2.00008C9.85521 2.00779 7.53079 2.74513 5.56219 3.84215C5.56219 3.84729 5.56219 3.84408 5.56219 3.84408C5.66881 4.33157 5.98161 5.49924 6.1319 6.00279C7.95084 4.85439 9.58802 4.14852 11.8289 4.14146C14.2375 4.13375 16.6351 5.05799 18.3956 6.71508" fill="#334155"/>
<path d="M20.2609 5.4729L20.2621 5.47418C19.9866 5.75229 19.0643 6.73242 18.7689 7.01052C20.7958 8.82433 21.7741 11.2136 21.8042 13.8733C21.8376 16.7834 20.7579 19.2344 18.6552 21.0258C18.9274 21.2885 19.8537 22.232 20.1966 22.5994C20.2005 22.6039 20.1966 22.6013 20.1985 22.6052C22.3129 20.3816 23.8775 17.1959 23.8622 13.881C23.8467 10.5482 22.3816 7.66565 20.2609 5.4729Z" fill="#334155"/>
<path d="M19.8144 22.9513C19.1742 22.3109 18.4567 21.5754 18.2383 21.3777C16.2562 22.8593 14.3364 23.6821 12.0113 23.7573C6.7652 23.9262 1.99947 19.2825 1.9847 13.8867C1.97571 10.6393 3.45296 8.26225 5.70865 6.31164C5.68874 5.58586 5.52945 4.6963 5.34255 4.04053C2.16197 6.33669 -0.0115152 9.75234 4.58991e-05 13.8957C0.0180298 20.2222 5.3676 26.0907 11.9067 25.9989C15.0976 25.9545 17.8529 24.5081 19.8144 22.9513C19.8151 22.9519 19.8138 22.9513 19.8144 22.9513Z" fill="#334155"/>
<path d="M12.7455 7.68815C15.4739 9.12108 19.8685 12.1642 17.5523 16.2106C17.542 16.2286 15.6313 17.9967 13.3557 18.7405C12.4 19.1984 9.0119 19.925 9.09989 19.8235C10.8251 17.824 10.7692 16.1008 10.764 15.8124C10.6824 11.362 8.16087 7.40619 8.13004 7.42353C7.78706 7.61429 6.59821 8.26428 6.59821 8.26428C7.73633 12.8168 7.6721 17.8697 7.60338 18.5555C7.55456 19.0463 7.28224 19.774 7.28224 19.774C7.31949 19.8272 7.37728 19.8844 7.46078 19.8819C8.19685 20.46 10.1288 21.6148 12.4712 21.3322C13.6672 21.1876 16.0347 20.5858 18.0494 18.1959C18.4277 17.7662 20.3701 15.2857 19.1259 11.8289C17.5202 7.36829 12.9832 5.59816 9.99582 6.56544C9.99582 6.56544 9.99846 6.5603 9.99456 6.56287C10.6208 6.71766 12.1147 7.3426 12.7442 7.68751L12.7455 7.68815Z" fill="#334155"/>
<path d="M6.36376 19.0078C6.44982 18.9846 6.49864 18.9923 6.4935 18.8402C6.48579 18.5999 6.55837 17.3276 6.60268 16.4014C6.63223 15.7919 6.56415 13.3872 6.55194 13.1598C6.50634 12.3216 6.46074 11.2137 6.38431 10.4821C6.23723 8.76466 6.24686 8.70878 6.24686 8.70878C6.07923 8.6529 5.9148 8.8231 5.88076 8.86614C5.65725 9.15581 5.3573 9.52127 5.00212 10.2278C4.29111 11.6209 3.92501 13.5124 4.21982 14.9987C4.2545 15.1721 4.45104 17.1175 6.34834 19.0072" fill="#334155"/>
<path d="M21.2962 4.61033C21.2962 4.88652 21.0739 5.11902 20.7894 5.11902C20.5049 5.11902 20.2872 4.88909 20.2872 4.61355C20.2872 4.33801 20.5081 4.10486 20.7927 4.10486C21.0772 4.10486 21.2962 4.33287 21.2962 4.61033ZM21.1754 4.61033C21.1754 4.40031 21.0084 4.22882 20.7921 4.22882C20.5756 4.22882 20.4086 4.40352 20.4086 4.61355C20.4086 4.82357 20.5723 4.99506 20.7888 4.99506C21.0053 4.99506 21.1754 4.82036 21.1754 4.61033ZM20.9191 4.67585L21.0194 4.83064H20.8806L20.8106 4.69961H20.7214V4.83064H20.6006V4.35792H20.8062C20.9326 4.35792 21.0046 4.41765 21.0046 4.52363C21.0046 4.59492 20.9744 4.64887 20.9191 4.67585ZM20.7206 4.60455H20.8055C20.8575 4.60455 20.8876 4.57629 20.8876 4.52877C20.8876 4.48124 20.8582 4.45426 20.8055 4.45426H20.7206V4.60455Z" fill="#334155"/>
<path fill-rule="evenodd" clip-rule="evenodd" d="M24.1433 1.64632L24.8643 1.88667C25.0216 1.93909 25.0216 2.16155 24.8643 2.21398L24.1433 2.45432C24.0917 2.47149 24.0513 2.51191 24.0342 2.56342L23.7938 3.28444C23.7414 3.44172 23.5189 3.44172 23.4665 3.28444L23.2262 2.56342C23.209 2.51191 23.1686 2.47149 23.1171 2.45432L22.396 2.21398C22.2388 2.16155 22.2388 1.93909 22.396 1.88667L23.1171 1.64632C23.1686 1.62915 23.209 1.58873 23.2262 1.53722L23.4665 0.816199C23.5189 0.658923 23.7414 0.658923 23.7938 0.816199L24.0342 1.53722C24.0513 1.58873 24.0917 1.62915 24.1433 1.64632ZM18.5662 1.50257C18.7147 1.05695 19.3451 1.05696 19.4936 1.50257L20.3772 4.15325L23.0278 5.03681C23.4735 5.18535 23.4735 5.81566 23.0278 5.9642L20.3772 6.84776L19.4936 9.49844C19.3451 9.94406 18.7147 9.94406 18.5662 9.49844L17.6826 6.84776L15.032 5.9642C14.5863 5.81566 14.5864 5.18535 15.032 5.03681L17.6826 4.15325L18.5662 1.50257ZM19.0299 2.8391L18.4418 4.60331C18.3932 4.74926 18.2787 4.86379 18.1327 4.91244L16.3685 5.50051L18.1327 6.08858C18.2787 6.13723 18.3932 6.25175 18.4418 6.39771L19.0299 8.16192L19.618 6.39771C19.6666 6.25175 19.7812 6.13723 19.9271 6.08858L21.6913 5.50051L19.9271 4.91244C19.7812 4.86379 19.6666 4.74926 19.618 4.60331L19.0299 2.8391ZM24.8643 8.78703L24.1433 8.54669C24.0917 8.52952 24.0513 8.4891 24.0342 8.43759L23.7938 7.71657C23.7414 7.55929 23.5189 7.55929 23.4665 7.71657L23.2262 8.43759C23.209 8.4891 23.1686 8.52952 23.1171 8.54669L22.396 8.78703C22.2388 8.83946 22.2388 9.06192 22.396 9.11435L23.1171 9.35469C23.1686 9.37186 23.209 9.41228 23.2262 9.46379L23.4665 10.1848C23.5189 10.3421 23.7414 10.3421 23.7938 10.1848L24.0342 9.46379C24.0513 9.41228 24.0917 9.37186 24.1433 9.35469L24.8643 9.11435C25.0216 9.06192 25.0216 8.83946 24.8643 8.78703Z" fill="#334155"/>
<path d="M22.8639 7.35613C23.206 6.70503 24.2078 6.75133 24.4559 7.49516L24.6127 7.96541L25.0857 8.12488C25.8784 8.38969 25.8785 9.51074 25.0857 9.77552L24.6127 9.93363L24.4559 10.4052C24.1913 11.1983 23.0701 11.1982 22.8053 10.4052L22.6472 9.93227L22.1756 9.77552C21.3822 9.51098 21.3822 8.38945 22.1756 8.12488L22.6472 7.96677L22.8053 7.49516L22.8639 7.35613ZM17.9038 1.28107C18.2645 0.199364 19.7947 0.199564 20.1556 1.28107L20.927 3.5996L23.2483 4.3738C24.3302 4.73443 24.3301 6.26492 23.2483 6.62554L20.9284 7.39838L20.1556 9.71827C19.7949 10.8002 18.2644 10.8001 17.9038 9.71827L17.1296 7.39702L14.8111 6.62554C13.7297 6.26469 13.7296 4.73452 14.8111 4.3738L17.1296 3.5996L17.9038 1.28107ZM23.7938 7.71657C23.7414 7.55929 23.5189 7.55929 23.4665 7.71657L23.2262 8.43759C23.209 8.4891 23.1686 8.52952 23.1171 8.54669L22.3964 8.78596C22.2391 8.83838 22.2388 9.06192 22.396 9.11435L23.1171 9.35469C23.1686 9.37186 23.209 9.41228 23.2262 9.46379L23.4665 10.1848C23.5189 10.3421 23.7414 10.3421 23.7938 10.1848L24.0342 9.46379C24.0513 9.41228 24.0917 9.37186 24.1433 9.35469L24.8643 9.11435C25.0214 9.06186 25.0219 8.83848 24.8649 8.78596L24.1433 8.54669C24.0917 8.52952 24.0513 8.4891 24.0342 8.43759L23.7938 7.71657ZM19.4936 1.50257C19.3451 1.05696 18.7147 1.05695 18.5662 1.50257L17.6826 4.15325L15.032 5.03681C14.5867 5.18545 14.5868 5.81434 15.0319 5.9631L17.6826 6.84776L18.5662 9.49844C18.7147 9.94406 19.3446 9.94308 19.4931 9.49746L20.3772 6.84776L23.0275 5.9631C23.4731 5.81457 23.4735 5.18535 23.0278 5.03681L20.3772 4.15325L19.4936 1.50257ZM19.618 4.60331C19.6666 4.74926 19.7812 4.86379 19.9271 4.91244L21.6913 5.50051L19.9271 6.08858C19.7814 6.13715 19.6673 6.25091 19.6185 6.39655L19.0299 8.16192L18.4422 6.39655C18.3935 6.25085 18.2785 6.13718 18.1327 6.08858L16.3685 5.50051L18.1327 4.91244C18.2787 4.86379 18.3932 4.74926 18.4418 4.60331L19.0299 2.8391L19.618 4.60331ZM19.0297 4.99398C18.9169 5.21127 18.7401 5.38713 18.5226 5.49967C18.74 5.61213 18.9168 5.7882 19.0297 6.00536C19.1422 5.78862 19.3187 5.61224 19.5354 5.49967C19.3186 5.38702 19.1422 5.21085 19.0297 4.99398ZM22.8639 0.455066C23.2063 -0.19552 24.208 -0.148347 24.4559 0.595459L24.6113 1.06571L25.0857 1.22382C25.8787 1.48852 25.8787 2.61114 25.0857 2.87582L24.6113 3.03257L24.4559 3.50418C24.1914 4.29771 23.0698 4.29771 22.8053 3.50418L22.6472 3.03257L22.1756 2.87582C21.382 2.61131 21.382 1.48833 22.1756 1.22382L22.6472 1.06571L22.8053 0.595459L22.8639 0.455066ZM23.7938 0.816199C23.7414 0.658923 23.5189 0.658923 23.4665 0.816199L23.2262 1.53722C23.209 1.58873 23.1686 1.62915 23.1171 1.64632L22.396 1.88667C22.2388 1.93909 22.2388 2.16155 22.396 2.21398L23.1174 2.45328C23.1688 2.4704 23.2092 2.51103 23.2265 2.56232L23.4664 3.28337C23.5188 3.44065 23.7411 3.44065 23.7935 3.28337L24.0348 2.56232C24.052 2.5111 24.0925 2.47038 24.1438 2.45328L24.8643 2.21398C25.0216 2.16155 25.0216 1.93909 24.8643 1.88667L24.1433 1.64632C24.0917 1.62915 24.0513 1.58873 24.0342 1.53722L23.7938 0.816199Z" fill="white"/>
</svg>
